<svg xmlns="http://www.w3.org/2000/svg" xmlns:xlink="http://www.w3.org/1999/xlink" width="410.729" height="305.273" viewBox="0 0 410.729 305.273"><defs><linearGradient id="a" x1="0.5" y1="1" x2="0.5" gradientUnits="objectBoundingBox"><stop offset="0" stop-color="gray" stop-opacity="0.251"/><stop offset="0.54" stop-color="gray" stop-opacity="0.122"/><stop offset="1" stop-color="gray" stop-opacity="0.102"/></linearGradient></defs><path d="M333.863,130.891c-26.331-.679-51.409-6.994-75.356-13.9s-47.666-14.577-73.367-18.239c-16.53-2.356-35.436-2.689-48.752,3.9-12.82,6.331-16.961,17.258-19.187,27.43-1.676,7.637-2.661,15.672,1.928,22.82,3.19,4.964,8.845,9.134,12.759,13.89,13.617,16.542,3.991,36.938-10.761,53.089-6.916,7.575-14.952,14.8-20.294,22.869s-7.811,17.3-3.137,25.534c4.63,8.137,15.668,14.276,27.625,18.585,24.285,8.751,52.89,11.253,80.8,12.673,61.772,3.141,123.869,1.778,185.8.407,22.922-.5,45.941-1.013,68.489-3.662,12.523-1.461,25.448-3.784,34.541-9.386,11.538-7.112,14.4-19.154,6.664-28.072-12.97-14.96-48.822-18.678-57.9-34.732-4.988-8.837.134-18.678,7.388-26.876,15.558-17.58,41.633-33,43-53.1.944-13.8-11.591-27.625-30.973-34.155-20.314-6.843-48.488-5.985-63.468,5.346C384.235,126.985,357.115,131.477,333.863,130.891Z" transform="translate(-95.226 -88.111)" fill="#d9583f" opacity="0.1"/><g transform="translate(294.994 0)" opacity="0.8"><path d="M907.243,147.566s-4.589-1.863-19.187,4.833-16.42,5.846-20.2,4.821-5.887-1.265-9.939-6.855c0,0-2.848-15.489-5.623-17.9s-14.516,1.371-14.516,1.371-14.085,3.239-16.786-15.594c0,0,1.9-14.191-.692-18.548,0,0,5.24,2.258,13.882-1.387s15.558,3.93,15.558,3.93,2.181,5.643,1.953,9,1.151,4.63,5.289,3c0,0,2.034-2.88-.842-7.641s-4.915-8.308-4.113-12.006,3.1-8.82,10.493-11.392,17.438-3.051,22.259-5.037,5.984-3.316,5.984-3.316-2.966,2.974,4.024,15.57,2.535,18.068,2.535,18.068-3.719,8.861-20.131,8.137c0,0-15.814.578-7.193,7.283,0,0,5.521-1.123,13.78-3.747s14.211,8.206,15.692,15.741A19.761,19.761,0,0,0,907.243,147.566Z" transform="translate(-820.3 -74.85)" fill="#d9583f"/><path d="M963.6,98.254l.086-.024c.635,2.4-6.432,12.063-12.474,19.744l-.069-.053C959.659,107.087,964.1,100.1,963.6,98.254Z" transform="translate(-897.908 -88.718)" fill="#444053"/><path d="M926.332,146.24l.037.1c-4.825,6.135-10.9,13.458-15.753,18.882-.464.517-.923,1.058-1.363,1.627l-.142-.11c.448-.557.907-1.1,1.371-1.627C915.339,159.678,921.511,152.371,926.332,146.24Z" transform="translate(-872.978 -117.195)" fill="#444053"/><path d="M893.053,196.22l.1.163c-8.841,11.038-9.427,28.174-9.447,28.325l-1.863-2.132C881.86,222.4,884.151,207.331,893.053,196.22Z" transform="translate(-856.803 -146.841)" fill="#444053"/><path d="M908.514,186.156s-10.423-5.419-18.548-3.474-26.413-6.876-26.413-6.876-7.767-3.153-9.329-6.75c0,0-5.326-5.635-5.631-8.544s-5.5-10.248-8.873-10.513" transform="translate(-831.819 -119.425)" fill="none" stroke="#444053" stroke-miterlimit="10" stroke-width="1"/><path d="M998.266,240.521s-5.248-3.535-4.638-7.661" transform="translate(-923.081 -168.574)" fill="none" stroke="#444053" stroke-miterlimit="10" stroke-width="1"/><path d="M973.263,243.346s-7.51-2.726-8.263-13.426" transform="translate(-906.129 -166.83)" fill="none" stroke="#444053" stroke-miterlimit="10" stroke-width="1"/><path d="M947.835,245.875a16.8,16.8,0,0,1-4.792-16.355" transform="translate(-892.817 -166.593)" fill="none" stroke="#444053" stroke-miterlimit="10" stroke-width="1"/><path d="M916.405,238.458s-4.776-10.021-.525-16.538" transform="translate(-875.948 -162.085)" fill="none" stroke="#444053" stroke-miterlimit="10" stroke-width="1"/><path d="M1002.654,222.63s-5.431,1.725-4.264,4.581" transform="translate(-925.837 -162.506)" fill="none" stroke="#444053" stroke-miterlimit="10" stroke-width="1"/><path d="M982.157,198.41s-7.266,2.3-7.437,12.584" transform="translate(-911.895 -148.14)" fill="none" stroke="#444053" stroke-miterlimit="10" stroke-width="1"/><path d="M959.109,192.58s-6.611,8.161-6.144,15.578" transform="translate(-898.977 -144.682)" fill="none" stroke="#444053" stroke-miterlimit="10" stroke-width="1"/><path d="M931.175,200.45s-6.571,6.278-5.732,9.764" transform="translate(-882.622 -149.35)" fill="none" stroke="#444053" stroke-miterlimit="10" stroke-width="1"/><path d="M919.668,193.659s-6.16,1.1-7.018-.919" transform="translate(-875.078 -144.777)" fill="none" stroke="#444053" stroke-miterlimit="10" stroke-width="1"/><path d="M910.23,176.72s3.112,4.121,3.914,3.2" transform="translate(-873.642 -135.275)" fill="none" stroke="#444053" stroke-miterlimit="10" stroke-width="1"/><path d="M958.3,165.132s-15.525,1.127-19.036-3.552" transform="translate(-890.861 -126.294)" fill="none" stroke="#444053" stroke-miterlimit="10" stroke-width="1"/><path d="M902.2,125.68s7.287,15.635,12.576,17.629" transform="translate(-868.879 -105)" fill="none" stroke="#444053" stroke-miterlimit="10" stroke-width="1"/><path d="M921,107.37s4.475,14.382,10.017,18.874" transform="translate(-880.031 -94.139)" fill="none" stroke="#444053" stroke-miterlimit="10" stroke-width="1"/><path d="M974.564,141.051s-11.8,5.065-18.894-.061" transform="translate(-900.595 -114.081)" fill="none" stroke="#444053" stroke-miterlimit="10" stroke-width="0.75"/><path d="M946.84,99.83s2.7,10.578,6.331,13.129" transform="translate(-895.358 -89.667)" fill="none" stroke="#444053" stroke-miterlimit="10" stroke-width="0.75"/><path d="M984.443,112s-6.636,2.51-9.114.586" transform="translate(-912.256 -96.886)" fill="none" stroke="#444053" stroke-miterlimit="10" stroke-width="0.75"/><path d="M892.6,185.21s0,9.215-2.51,9.87" transform="translate(-861.696 -140.31)" fill="none" stroke="#444053" stroke-miterlimit="10" stroke-width="1"/><path d="M845.84,208.308s9.968.854,14.561-4.288" transform="translate(-835.449 -151.468)" fill="none" stroke="#444053" stroke-miterlimit="10" stroke-width="1"/><path d="M876.731,158.45s-2.409,9.357-9.061,11.864" transform="translate(-848.398 -124.438)" fill="none" stroke="#444053" stroke-miterlimit="10" stroke-width="1"/><path d="M831.15,184.832a13.077,13.077,0,0,0,13.121-3.792" transform="translate(-826.736 -137.837)" fill="none" stroke="#444053" stroke-miterlimit="10" stroke-width="1"/><path d="M863.4,138.7s-.667,7.938-4.984,11.652" transform="translate(-842.911 -112.723)" fill="none" stroke="#444053" stroke-miterlimit="10" stroke-width="1"/><path d="M831.81,157.907s5.855.037,7.226-1.867" transform="translate(-827.127 -123.008)" fill="none" stroke="#444053" stroke-miterlimit="10" stroke-width="1"/></g><ellipse cx="88.693" cy="6.306" rx="88.693" ry="6.306" transform="translate(18.257 292.661)" fill="#d9583f" opacity="0.1"/><path d="M316.978,425.03c1.221-2.193,2.681-4.26,3.861-6.481,1.078-2.034,1.92-4.191,2.893-6.282,1.664-3.58,3.715-6.965,5.582-10.448,1.221-2.282,2.4-4.768,2.164-7.348-.224-2.441-1.656-4.557-2.209-6.916-2.254-9.687-7.677-18.581-10.985-27.95-.846-2.376-1.668-4.768-2.726-7.063a74.8,74.8,0,0,0-7.73-12.315,34.779,34.779,0,0,0-3.417-4.247c-1.021-1.021-2.168-1.92-3.1-3.027-1.912-2.278-2.807-5.557-5.2-7.323-.041.106-.085.207-.13.313-1.713-4.374-7.457-7.258-10.79-10.883a64.063,64.063,0,0,1-5.342-7.018L272.6,297.557a17.616,17.616,0,0,1-3.027-5.814c-.618-2.6-.045-5.362-.655-7.958a10.037,10.037,0,0,0-2.217-4.215c.069-.02.142-.049.216-.065,1.383-.37,2.848-.435,4.219-.765,2.99-.712,5.59-2.624,8.568-3.389,1.522-.407,3.145-.488,4.524-1.221a3.759,3.759,0,0,0,1.749-4c-.964-5.106,1.729-10.281,1.273-15.46-.122-1.432-.488-2.828-.724-4.247a45.029,45.029,0,0,1-.252-10.017,21.159,21.159,0,0,1,3.316-4.121c1.831-1.766,4.016-3.255,5.289-5.464a10.655,10.655,0,0,0,1.1-6.558,6.328,6.328,0,0,0-2.034-4.329,5.114,5.114,0,0,0-4.671-.545c-.216.069-.427.155-.635.244a5.334,5.334,0,0,0-4.207-.244,12.749,12.749,0,0,0-4.117,2.6,9.408,9.408,0,0,0-1.92,2.034,12.063,12.063,0,0,0-1.31,4.162,40.681,40.681,0,0,1-2.746,8.051c-.22.456-.814,1.273-1.294,2.055l-.871-.179c-.378,3.625-3.413,6.286-5.261,9.419-.9,1.522-1.53,3.186-2.339,4.76a46.129,46.129,0,0,1-3.088,4.951q-1.648,2.441-3.3,4.837a68.764,68.764,0,0,1-4.475,6.054c-1.493-.122-2.986-.232-4.475-.256a36.329,36.329,0,0,0-7.449.663,20.756,20.756,0,0,1-.264-2.608v-.159c0-.212.024-.464.053-.736a15.053,15.053,0,0,0-.72-25.469,10.946,10.946,0,0,0,.155-1.383v-.814a1.921,1.921,0,0,0-.028-.407,5.378,5.378,0,0,0-.138-.814c-.033-.13-.069-.26-.114-.407a3.846,3.846,0,0,0-.338-.732.345.345,0,0,0-.029-.041c-.053-.085-.106-.171-.167-.252s-.053-.065-.077-.1a1.95,1.95,0,0,0-.138-.171l-.1-.106c-.045-.049-.09-.1-.138-.142l-.114-.1-.142-.126-.13-.1-.146-.11-.142-.094-.146-.094c-.049-.033-.1-.061-.155-.09l-.151-.085-.163-.081-.151-.073-.179-.077-.146-.065-.2-.073-.138-.053-.212-.073-.126-.041-.232-.073-.11-.033-.252-.069-.1-.028-.264-.065-.077-.02-.293-.065h-.049l-.431-.094q-2.673-.549-5.379-.948a12.116,12.116,0,0,0-4.447-.077c-2.01.448-3.686,1.806-5.566,2.648-2.221,1-4.687,1.265-7.055,1.815s-4.8,1.489-6.29,3.43a11.976,11.976,0,0,0-1.92,5.2c-2.815,15.314.22,31.022.793,46.588.224,6.058-.049,12.535-3.483,17.494l10-.264c.48,0,.964-.029,1.452-.057s.976-.065,1.457-.122a9.636,9.636,0,0,0,3.625-1.086,6.252,6.252,0,0,0,1.412-1.1,14.069,14.069,0,0,0,2.746-5.228c.224-.631.448-1.269.647-1.912.081-.268.159-.537.228-.814l.033-.13.114.053a25.185,25.185,0,0,0,1.355,2.238,48.481,48.481,0,0,0,6.156,6.953c4.365,4.333,8.829,8.743,14.3,11.526,1.847.932,3.845,1.717,5.252,3.255.692.745,1.29,1.7,2.27,1.957a11.3,11.3,0,0,1,1.863.26c.854.358,1.168,1.387,1.562,2.234s1.286,1.709,2.132,1.322a4.276,4.276,0,0,0,1.595,4.243,3.117,3.117,0,0,1,1.033.928,3.372,3.372,0,0,1,.212,1.09,4.309,4.309,0,0,0,1.542,2.64c-.793,1.314-.159,3.2-.138,4.837a18.193,18.193,0,0,1-.761,4.04c-.9,3.926-.407,8.035.325,11.994.407,2.185.924,4.447,2.347,6.143.464.549,1.017,1.025,1.505,1.558a14.487,14.487,0,0,1,2.3,3.5,27.463,27.463,0,0,1,2.494,7.99,14.549,14.549,0,0,0,1.18,4.028c.891,1.945.077,4.337.875,6.322a18.343,18.343,0,0,1,1.245,2.583c.305,1.355-.407,2.71-.6,4.089-.464,3.23,1.867,6.229,2.079,9.484a.749.749,0,0,1-.114.549c-.159.179-.431.175-.647.277-.407.2-.517.745-.647,1.2s-.5.972-.948.834c-6.684,3.576-13.6,6.88-20.289,10.456l-3.051,1.627-16.319,8.719a1.18,1.18,0,0,0-.655,1.066c0,.2.024.407.041.59-1.143.285-2.242.627-3.023.769-.321.061-.643.122-.96.191a1.026,1.026,0,0,0,.146-.407.814.814,0,0,0-.72-.814,2.609,2.609,0,0,0-1.176.155,17.151,17.151,0,0,1-2.848.525,20.325,20.325,0,0,0-3.413.407,3.88,3.88,0,0,0-2.645,2.034,4.936,4.936,0,0,0-.293,1.92,29.4,29.4,0,0,0,.887,7.462.635.635,0,0,0,.3.476c.142.057.313,0,.456.065a.61.61,0,0,1,.264.334,16.729,16.729,0,0,1,1.025,4.98q.407,3.763,1.029,7.506a8.331,8.331,0,0,0,1.493,4.1,6.7,6.7,0,0,0,4.28,1.977c3.356.452,6.745-.228,10.057-.924a2.947,2.947,0,0,0,1.7-.769,1.916,1.916,0,0,0,.407-1.355c-.077-1.672-1.6-2.848-2.982-3.788l-1.888-1.306a.814.814,0,0,1-.407-.919l.122-2.47H234.8a8.872,8.872,0,0,1,2.343-4.61c.883-.814,2.034-1.383,2.958-2.124a7.323,7.323,0,0,0,4.113,1.509c2.441-3.287,5.879-5.525,9.317-7.73a91.128,91.128,0,0,1,8.645-4.825q3.6-1.782,7.323-3.34c3.5-1.473,7.063-2.787,10.631-4.068a42.808,42.808,0,0,0,6.973-2.958c5.7-3.291,9.72-9.862,8.951-16.441-.968-8.3,1.1-16.949.964-25.306a25.08,25.08,0,0,0-.871-7.222,3.858,3.858,0,0,1,.484.407c1.481,1.383,1.839,3.58,3.255,5.159,1.1,1.241,2.779,2.034,3.446,3.548.509,1.16.435,2.726,1.5,3.393.3.191.659.273.96.46a3.214,3.214,0,0,1,.891.964c1.127,1.607,2.295,3.328,2.417,5.289.053.777-.02,1.676.549,2.2.163.151.37.26.456.464.179.407-.293.838-.374,1.29-.118.626.5,1.1.883,1.627a2.559,2.559,0,0,1,0,3.015c-3.336,4.333-3.938,10.171-6.855,14.805-1.009,1.6-2.132,3.112-3.108,4.732-3,4.972-4.52,10.684-5.993,16.31a9.013,9.013,0,0,0,2.5,2.791,13.833,13.833,0,0,1-2.787,5.147,12.946,12.946,0,0,0-.919,1.151,2.237,2.237,0,0,0-.907-.683,32.233,32.233,0,0,0-.814,7.12c0,1.579.216,3.381,1.5,4.292a5.311,5.311,0,0,0,1.664.688l2.791.814a2.918,2.918,0,0,0,1.542.151c.33-.094.622-.3.96-.362a2.355,2.355,0,0,1,1.082.142l2.413.7a15.941,15.941,0,0,1,2.384.842c.688.33,1.322.757,2,1.123a24.13,24.13,0,0,0,3.487,1.432l4.158,1.432a15.135,15.135,0,0,0,3.6.936c.854.073,1.721,0,2.563.146.643.11,1.265.342,1.912.407a5.012,5.012,0,0,0,3.011-.9,2.689,2.689,0,0,0,.871-.785c.61-.952.085-2.209-.509-3.169a12.534,12.534,0,0,0-4.3-4.475c-.736-.407-1.534-.708-2.295-1.082-2.164-1.058-3.8-2.824-5.842-4.032a1.387,1.387,0,0,0-1.754.118c-1.7-1.1-3.54-2.181-4.475-3.975a8.951,8.951,0,0,1-.814-2.746c.956.228,1.92.407,2.893.565C312.153,436.808,313.882,430.563,316.978,425.03ZM277.893,251.514c-.081.46-.171.915-.268,1.371-.814,3.82-1.977,8.1-4.638,10.944a10.171,10.171,0,0,1-3,1.981l-.3.146A65.27,65.27,0,0,1,277.893,251.514Z" transform="translate(-158.648 -160.397)" fill="url(#a)"/><path d="M391.159,229.9a12.144,12.144,0,0,1,1.314-4.134,9.444,9.444,0,0,1,1.924-2.034,12.831,12.831,0,0,1,4.125-2.579,5.153,5.153,0,0,1,4.675.541,6.222,6.222,0,0,1,2.055,4.3,10.588,10.588,0,0,1-1.1,6.51c-1.261,2.2-3.45,3.662-5.289,5.427a21,21,0,0,0-3.446,4.3,12.244,12.244,0,0,1-1.57,2.295,2.982,2.982,0,0,1-2.494,1,4.4,4.4,0,0,1-2.034-1.192c-.753-.659-2.779-1.835-2.848-2.88-.049-.846,1.534-2.767,1.92-3.56A40.088,40.088,0,0,0,391.159,229.9Z" transform="translate(-267.977 -161.443)" fill="#fbbebe"/><path d="M391.159,229.9a12.144,12.144,0,0,1,1.314-4.134,9.444,9.444,0,0,1,1.924-2.034,12.831,12.831,0,0,1,4.125-2.579,5.153,5.153,0,0,1,4.675.541,6.222,6.222,0,0,1,2.055,4.3,10.588,10.588,0,0,1-1.1,6.51c-1.261,2.2-3.45,3.662-5.289,5.427a21,21,0,0,0-3.446,4.3,12.244,12.244,0,0,1-1.57,2.295,2.982,2.982,0,0,1-2.494,1,4.4,4.4,0,0,1-2.034-1.192c-.753-.659-2.779-1.835-2.848-2.88-.049-.846,1.534-2.767,1.92-3.56A40.088,40.088,0,0,0,391.159,229.9Z" transform="translate(-267.977 -161.443)" opacity="0.1"/><path d="M293,300.27a36.5,36.5,0,0,1,10-1.221c5.627.081,11.42,1.444,16.778-.281a29.1,29.1,0,0,0,4.024-1.745,10.212,10.212,0,0,0,3-1.969c2.665-2.823,3.812-7.075,4.646-10.871a72.534,72.534,0,0,0,1.265-11.571,8.829,8.829,0,0,0,4.386,1.155,3.181,3.181,0,0,0,3.064-2.848,46.557,46.557,0,0,0,.2,10.777c.236,1.408.6,2.8.728,4.219.456,5.143-2.242,10.281-1.278,15.354a3.723,3.723,0,0,1-1.749,3.967,19.116,19.116,0,0,1-4.532,1.221c-2.982.761-5.586,2.657-8.58,3.365-1.4.33-2.848.407-4.223.761-1.977.521-3.771,1.652-5.785,2.01-1.509.269-3.064.085-4.589.216-1.326.11-2.628.46-3.959.492-3.255.081-6.335-1.762-8.5-4.207S294.359,303.232,293,300.27Z" transform="translate(-212.536 -191.15)" fill="#d9583f"/><path d="M293,300.27a36.5,36.5,0,0,1,10-1.221c5.627.081,11.42,1.444,16.778-.281a29.1,29.1,0,0,0,4.024-1.745,10.212,10.212,0,0,0,3-1.969c2.665-2.823,3.812-7.075,4.646-10.871a72.534,72.534,0,0,0,1.265-11.571,8.829,8.829,0,0,0,4.386,1.155,3.181,3.181,0,0,0,3.064-2.848,46.557,46.557,0,0,0,.2,10.777c.236,1.408.6,2.8.728,4.219.456,5.143-2.242,10.281-1.278,15.354a3.723,3.723,0,0,1-1.749,3.967,19.116,19.116,0,0,1-4.532,1.221c-2.982.761-5.586,2.657-8.58,3.365-1.4.33-2.848.407-4.223.761-1.977.521-3.771,1.652-5.785,2.01-1.509.269-3.064.085-4.589.216-1.326.11-2.628.46-3.959.492-3.255.081-6.335-1.762-8.5-4.207S294.359,303.232,293,300.27Z" transform="translate(-212.536 -191.15)" opacity="0.1"/><path d="M601.714,345.266a28.007,28.007,0,1,1-28.007,28.006,28.007,28.007,0,0,1,28.007-28.006m0-6.916a34.924,34.924,0,1,0,34.924,34.922A34.924,34.924,0,0,0,601.714,338.35Z" transform="translate(-374.936 -231.146)" fill="#1b788a"/><rect width="8.186" height="8.617" transform="translate(221.607 99.035)" fill="#1b788a"/><rect width="8.186" height="8.617" transform="matrix(0.857, 0.515, -0.515, 0.857, 244.394, 102.531)" fill="#1b788a"/><rect width="8.186" height="8.617" transform="matrix(0.485, 0.875, -0.875, 0.485, 261.831, 116.641)" fill="#1b788a"/><rect width="8.186" height="8.617" transform="matrix(-0.53, 0.848, -0.848, -0.53, 266.06, 160.431)" fill="#1b788a"/><rect width="8.186" height="8.617" transform="matrix(-0.485, 0.875, -0.875, -0.485, 199.264, 120.815)" fill="#1b788a"/><rect width="8.186" height="8.617" transform="matrix(0.53, 0.848, -0.848, 0.53, 194.806, 155.861)" fill="#1b788a"/><rect width="8.186" height="8.617" transform="matrix(-0.857, 0.515, -0.515, -0.857, 213.598, 109.916)" fill="#1b788a"/><rect width="8.186" height="8.617" transform="translate(221.607 176.596)" fill="#1b788a"/><rect width="8.186" height="8.617" transform="matrix(0.857, -0.515, 0.515, 0.857, 239.957, 174.333)" fill="#1b788a"/><rect width="8.186" height="8.617" transform="matrix(-0.857, -0.515, 0.515, -0.857, 209.162, 181.719)" fill="#1b788a"/><rect width="9.911" height="7.323" transform="translate(182.83 138.678)" fill="#1b788a"/><rect width="9.911" height="7.323" transform="translate(270.725 146.001) rotate(180)" fill="#1b788a"/><path d="M761.634,221.356a28.007,28.007,0,1,1-28.007,28.006,28.007,28.007,0,0,1,28.007-28.006m0-6.916a34.924,34.924,0,1,0,34.924,34.922A34.924,34.924,0,0,0,761.634,214.44Z" transform="translate(-469.793 -157.648)" fill="#1b788a"/><rect width="8.186" height="8.617" transform="translate(286.67 48.626)" fill="#1b788a"/><rect width="8.186" height="8.617" transform="matrix(0.857, 0.515, -0.515, 0.857, 309.46, 52.116)" fill="#1b788a"/><rect width="8.186" height="8.617" transform="matrix(0.485, 0.875, -0.875, 0.485, 326.896, 66.227)" fill="#1b788a"/><rect width="8.186" height="8.617" transform="matrix(-0.53, 0.848, -0.848, -0.53, 331.122, 110.019)" fill="#1b788a"/><rect width="8.186" height="8.617" transform="matrix(-0.485, 0.875, -0.875, -0.485, 264.324, 70.408)" fill="#1b788a"/><rect width="8.186" height="8.617" transform="matrix(0.53, 0.848, -0.848, 0.53, 259.867, 105.452)" fill="#1b788a"/><rect width="8.186" height="8.617" transform="matrix(-0.857, 0.515, -0.515, -0.857, 278.661, 59.502)" fill="#1b788a"/><rect width="8.186" height="8.617" transform="translate(286.67 126.183)" fill="#1b788a"/><rect width="8.186" height="8.617" transform="matrix(0.857, -0.515, 0.515, 0.857, 305.02, 123.922)" fill="#1b788a"/><rect width="8.186" height="8.617" transform="matrix(-0.857, -0.515, 0.515, -0.857, 274.222, 131.305)" fill="#1b788a"/><rect width="9.911" height="7.323" transform="translate(247.889 88.265)" fill="#1b788a"/><rect width="9.911" height="7.323" transform="translate(335.792 95.589) rotate(180)" fill="#1b788a"/><path d="M440.882,216.049h.989a28.005,28.005,0,1,1-.952,56c-.33,0-.659,0-.993,0a28.005,28.005,0,1,1,.956-56m0-6.912h0a34.921,34.921,0,1,0-1.2,69.832c.407-.005.814.015,1.221.015a34.921,34.921,0,1,0,1.192-69.832c-.407.005-.814-.015-1.221-.015Z" transform="translate(-279.183 -154.497)" fill="#1b788a"/><rect width="8.186" height="8.617" transform="translate(158.039 46.324) rotate(1.99)" fill="#1b788a"/><rect width="8.186" height="8.617" transform="matrix(0.839, 0.544, -0.544, 0.839, 180.688, 50.601)" fill="#1b788a"/><rect width="8.186" height="8.617" transform="translate(197.627 65.31) rotate(62.99)" fill="#1b788a"/><rect width="8.186" height="8.617" transform="translate(200.338 109.208) rotate(123.99)" fill="#1b788a"/><rect width="8.186" height="8.617" transform="matrix(-0.515, 0.857, -0.857, -0.515, 134.951, 67.306)" fill="#1b788a"/><rect width="8.214" height="8.647" transform="translate(128.709 102.817) rotate(60.113)" fill="#1b788a"/><rect width="8.186" height="8.617" transform="translate(149.665 56.903) rotate(150.99)" fill="#1b788a"/><rect width="8.186" height="8.617" transform="translate(155.349 123.831) rotate(1.99)" fill="#1b788a"/><rect width="8.186" height="8.617" transform="translate(173.771 122.213) rotate(-29.01)" fill="#1b788a"/><rect width="8.186" height="8.617" transform="matrix(-0.839, -0.544, 0.544, -0.839, 142.742, 128.516)" fill="#1b788a"/><rect width="9.911" height="7.323" transform="translate(117.912 84.592) rotate(1.99)" fill="#1b788a"/><rect width="9.911" height="7.323" transform="translate(205.509 94.949) rotate(-178.01)" fill="#1b788a"/><path d="M260.665,732.154a8.407,8.407,0,0,0-2.885.9,6.778,6.778,0,0,0-2.51,3.385,29.31,29.31,0,0,0-1.684,10.578,22.745,22.745,0,0,0,1.086,8.564,5.411,5.411,0,0,0,1.436,2.242,5.112,5.112,0,0,0,1.965.952,5.364,5.364,0,0,0,4.606-.57c1.408-1.1,1.762-3.043,2.059-4.8.407-2.376.972-4.882,2.738-6.538,1.31-1.221,3.186-1.831,4.138-3.344,1.135-1.8.537-4.146-.187-6.148-.631-1.733-1.554-5.252-3.369-6.139S262.552,731.813,260.665,732.154Z" transform="translate(-189.152 -464.018)" fill="#fbbebe"/><path d="M429.152,749.9a13.609,13.609,0,0,1-2.848,5.253c-.814.928-1.81,2.055-1.383,3.206a2.87,2.87,0,0,0,.757,1.013c5.964,5.838,14.309,8.678,22.588,9.711a.777.777,0,0,0,.407,0c.244-.11.3-.407.334-.679a8.6,8.6,0,0,0,0-2.6c-.407-2.034-2.177-3.446-3.91-4.561s-3.629-2.2-4.6-4.016c-1.221-2.262-.7-5.208-2.132-7.323-1.164-1.721-3.324-2.441-5.374-2.779-.712-.11-2.225-.891-2.848-.529S429.368,749.191,429.152,749.9Z" transform="translate(-290.725 -473.239)" fill="#fbbebe"/><path d="M252.8,732.184a.814.814,0,0,0-.72-.814,2.6,2.6,0,0,0-1.176.15,17.179,17.179,0,0,1-2.848.521,20.47,20.47,0,0,0-3.422.407,3.866,3.866,0,0,0-2.649,2.034,5.041,5.041,0,0,0-.293,1.908,29.151,29.151,0,0,0,.887,7.409.642.642,0,0,0,.3.476c.142.057.313,0,.456.065a.6.6,0,0,1,.264.33,16.35,16.35,0,0,1,1.029,4.947q.407,3.739,1.029,7.453a8.167,8.167,0,0,0,1.5,4.068,6.691,6.691,0,0,0,4.284,1.961c3.361.447,6.754-.228,10.074-.919a2.937,2.937,0,0,0,1.7-.761,1.9,1.9,0,0,0,.407-1.347c-.077-1.66-1.6-2.848-2.986-3.759l-1.9-1.282a.988.988,0,0,1-.334-.3,1.074,1.074,0,0,1-.094-.61l.122-2.441a6.99,6.99,0,0,0-6.1,3.788c-.264.525-.513,1.139-1.062,1.343a1.4,1.4,0,0,1-1.664-1,4.378,4.378,0,0,1,.061-2.148c1.115-5.973.854-12.112,1.534-18.149a4.134,4.134,0,0,1,.606-1.912C252.126,733.14,252.74,732.741,252.8,732.184Z" transform="translate(-182.101 -464.259)" fill="#3f3d56"/><path d="M442.853,777.622c.281.464.716.814.976,1.294a1.1,1.1,0,0,1-.212,1.452,1.43,1.43,0,0,1-.879.089,29.741,29.741,0,0,1-16.083-7.274,11.283,11.283,0,0,1-1.969-2.161c-.525-.814-.968-1.77-1.863-2.1a31.806,31.806,0,0,0-.814,7.071c0,1.566.216,3.357,1.5,4.264a5.355,5.355,0,0,0,1.668.68l2.8.789a2.977,2.977,0,0,0,1.546.151c.33-.09.622-.3.96-.358a2.374,2.374,0,0,1,1.086.138l2.413.7a15.964,15.964,0,0,1,2.388.814c.688.325,1.326.753,2,1.115a23.867,23.867,0,0,0,3.495,1.42l4.247,1.473a14.969,14.969,0,0,0,3.613.928c.854.073,1.721,0,2.567.147.643.11,1.265.342,1.916.407a5.067,5.067,0,0,0,3.011-.891,2.722,2.722,0,0,0,.875-.777c.61-.948.085-2.2-.513-3.153a12.38,12.38,0,0,0-4.3-4.431c-.741-.407-1.538-.708-2.3-1.078-2.164-1.05-3.8-2.8-5.85-4C443.186,773.2,441.941,776.129,442.853,777.622Z" transform="translate(-289.059 -486.54)" fill="#3f3d56"/><path d="M283.684,340.508a17.6,17.6,0,0,1-7.51,2.921,30.283,30.283,0,0,1-4.251.228,108.141,108.141,0,0,1-17.682-1.477c2.327-2.563,4.679-5.289,5.557-8.65a14.207,14.207,0,0,0,.264-5.419,40.565,40.565,0,0,0-1.652-6.823,47.268,47.268,0,0,0,7.474-.191c1.416-.142,4.882-1.432,6.1-.456,1.143.907.281,4.117.26,5.6v.159a18.014,18.014,0,0,0,1.428,6.534C275.465,336.936,279.294,340.223,283.684,340.508Z" transform="translate(-189.546 -220.427)" fill="#fbbebe"/><path d="M278.337,326.19a14.923,14.923,0,0,1-12.205,1.871,40.554,40.554,0,0,0-1.652-6.823,47.275,47.275,0,0,0,7.474-.191c1.416-.142,4.882-1.432,6.1-.456C279.22,321.5,278.358,324.709,278.337,326.19Z" transform="translate(-195.62 -220.397)" opacity="0.1"/><circle cx="14.891" cy="14.891" r="14.891" transform="translate(59.674 77.744)" fill="#fbbebe"/><path d="M321.436,408.577a6.916,6.916,0,0,1-3.356,5.977,13.264,13.264,0,0,1-3.662,1.282c-6.811,1.627-13.788,2.966-20.782,2.567a11.448,11.448,0,0,1-4.41-.928,4.711,4.711,0,0,1-2.722-3.4,3.221,3.221,0,0,0-.216-1.082,3.052,3.052,0,0,0-1.033-.919,4.235,4.235,0,0,1-1.57-4.2c-.85.378-1.737-.476-2.136-1.318s-.712-1.859-1.566-2.213a12.758,12.758,0,0,0-1.867-.26c-.981-.252-1.579-1.22-2.27-1.945-1.412-1.509-3.413-2.291-5.26-3.218-5.48-2.763-9.947-7.14-14.321-11.445a47.585,47.585,0,0,1-6.164-6.916c-.492-.72-.936-1.461-1.355-2.221a62.462,62.462,0,0,1-3.434-7.856,9.034,9.034,0,0,1-.887-4.475c.02-.138.049-.277.081-.407a8.563,8.563,0,0,1,1.351-2.73c1.513-2.225,3.5-4.333,6.1-5.016s5.2.142,7.848.7a19.989,19.989,0,0,0,2.665.407,24.846,24.846,0,0,0,8.287-1.3l2.954-.814c1.481-.407,2.221-2.2,3.719-2.51a5.222,5.222,0,0,1,2.006.1,27.671,27.671,0,0,1,8.776,2.868,14.471,14.471,0,0,1,1.7,1.159,10.787,10.787,0,0,1,3.963,5.855c.61,2.575.037,5.326.655,7.9a17.51,17.51,0,0,0,3.035,5.777l7.27,10.383a64.515,64.515,0,0,0,5.35,6.973C314.089,399.594,321.339,402.8,321.436,408.577Z" transform="translate(-183.692 -240.594)" fill="#d9583f"/><path d="M379.223,229.9a12.137,12.137,0,0,1,1.31-4.134,9.444,9.444,0,0,1,1.924-2.034,12.876,12.876,0,0,1,4.125-2.579,5.153,5.153,0,0,1,4.675.541,6.222,6.222,0,0,1,2.055,4.3,10.588,10.588,0,0,1-1.1,6.51c-1.261,2.2-3.45,3.662-5.289,5.427a21.16,21.16,0,0,0-3.446,4.3,12.241,12.241,0,0,1-1.57,2.295,2.982,2.982,0,0,1-2.494,1,4.42,4.42,0,0,1-2.034-1.192c-.753-.659-2.783-1.835-2.848-2.88-.049-.846,1.534-2.767,1.92-3.56A40.354,40.354,0,0,0,379.223,229.9Z" transform="translate(-260.894 -161.443)" fill="#fbbebe"/><path d="M374.455,556.755c-1.871,3.454-3.922,6.819-5.59,10.374-.972,2.079-1.815,4.219-2.9,6.241-1.18,2.205-2.632,4.256-3.865,6.436-3.1,5.5-4.833,11.7-6.432,17.8a35.463,35.463,0,0,1-12.677-4.475c-.264-.155-.517-.317-.761-.492a9.05,9.05,0,0,1-2.559-2.819c1.477-5.586,2.994-11.266,6-16.2.98-1.627,2.1-3.112,3.112-4.7,2.925-4.6,3.527-10.4,6.868-14.7a2.527,2.527,0,0,0,0-2.994c-.387-.5-1-.977-.887-1.595.085-.452.557-.858.374-1.282-.085-.2-.293-.313-.456-.46-.57-.525-.5-1.42-.545-2.189-.126-1.949-1.294-3.662-2.441-5.253a3.253,3.253,0,0,0-.891-.96c-.3-.183-.659-.265-.96-.452-1.066-.667-.989-2.221-1.5-3.373-.667-1.518-2.348-2.291-3.45-3.523-1.4-1.566-1.762-3.751-3.255-5.122a4.084,4.084,0,0,0-.484-.407,25.085,25.085,0,0,1,.867,7.173c.142,8.3-1.932,16.884-.96,25.127.765,6.538-3.255,13.064-8.971,16.331a43.187,43.187,0,0,1-6.982,2.942c-3.576,1.265-7.14,2.571-10.647,4.036q-3.719,1.538-7.323,3.316a92.54,92.54,0,0,0-8.662,4.793c-3.442,2.189-6.884,4.414-9.329,7.681a8.392,8.392,0,0,1-6.025-3.316,22.994,22.994,0,0,1-3.3-6.249,17.346,17.346,0,0,1-1.566-5.883,1.164,1.164,0,0,1,.708-1.017l16.343-8.662,3.055-1.627c6.693-3.552,13.625-6.835,20.318-10.383.452.134.814-.378.948-.814s.228-1,.651-1.192c.212-.1.488-.1.647-.277a.773.773,0,0,0,.114-.541c-.216-3.255-2.551-6.213-2.083-9.422.2-1.367.9-2.714.6-4.069a17.75,17.75,0,0,0-1.245-2.567c-.814-1.973,0-4.349-.879-6.282a14.524,14.524,0,0,1-1.18-4,27.19,27.19,0,0,0-2.5-7.933,14.467,14.467,0,0,0-2.3-3.479c-.492-.529-1.046-1-1.514-1.55a12.882,12.882,0,0,1-2.348-6.1c-.732-3.934-1.221-8.015-.326-11.912a16.913,16.913,0,0,0,.761-4.011c-.02-1.8-.814-3.906.439-5.208a4.046,4.046,0,0,1,1.831-.94,55.235,55.235,0,0,1,8.861-1.627l13.65-1.786a12.4,12.4,0,0,0,4.54-1.184,9.132,9.132,0,0,0,3.833-4.882c2.4,1.749,3.291,5.008,5.2,7.266.932,1.1,2.083,1.994,3.1,3.007a34.835,34.835,0,0,1,3.422,4.219,74.265,74.265,0,0,1,7.73,12.234c1.062,2.278,1.884,4.654,2.73,7.018,3.332,9.3,8.763,18.137,11.017,27.755.553,2.352,1.99,4.475,2.213,6.88C376.859,552.02,375.679,554.485,374.455,556.755Z" transform="translate(-203.793 -315.813)" fill="#1b788a"/><path d="M338.264,473.688a4.19,4.19,0,0,0-.5,2.014c.305-1.505,2.376-2.339,2.51-3.828.061-.688-.065-.655-.488-.293C339.139,472.138,338.858,473.1,338.264,473.688Z" transform="translate(-239.086 -310.022)" opacity="0.1"/><path d="M352.661,487.668a3.1,3.1,0,0,0-.944,1.4,3.539,3.539,0,0,0-.191,2.441c.305-.142.407-.517.5-.842a5.874,5.874,0,0,1,.647-1.44c.244-.407,1.371-1.314,1.367-1.741C354.028,486.826,352.962,487.436,352.661,487.668Z" transform="translate(-247.172 -319.429)" opacity="0.1"/><path d="M287.9,358.38a15.353,15.353,0,0,1-3.141,2.091c-2.95,1.493-6.217,2.282-9.187,3.731a45.5,45.5,0,0,0-4.264,2.486l-8.829,5.594a9.462,9.462,0,0,0-1.945,1.477c-1.062,1.131-1.058,3.121-2.034,4.333a5.959,5.959,0,0,1-4.284,1.977,13.919,13.919,0,0,1-4.772-.814,24.762,24.762,0,0,1-2.726-.993,12.843,12.843,0,0,1-2.62-1.5,7.476,7.476,0,0,1-3.084-4.882,9.643,9.643,0,0,1,.525-3.979,15.268,15.268,0,0,1,.94-2.413,9.707,9.707,0,0,1,.749-1.269c2.034-2.872,5.6-4.219,9.056-4.882,1.815-.354,3.662-.57,5.5-.879a20.008,20.008,0,0,0,2.665.407,24.846,24.846,0,0,0,8.287-1.3l2.954-.814c1.481-.407,2.221-2.2,3.719-2.51a5.219,5.219,0,0,1,2.006.1,27.669,27.669,0,0,1,8.776,2.868A14.462,14.462,0,0,1,287.9,358.38Z" transform="translate(-181.685 -240.541)" opacity="0.1"/><path d="M295.1,267.35c-.378,3.6-3.418,6.245-5.289,9.357-.9,1.509-1.53,3.165-2.339,4.728a46.848,46.848,0,0,1-3.092,4.923l-3.308,4.8a49.674,49.674,0,0,1-6.4,8.035c-4.333.736-7.966,3.955-12.075,5.517-3.287,1.249-6.872,1.42-10.322,2.091s-7.026,2.034-9.052,4.882a12.779,12.779,0,0,0-1.692,3.662,9.487,9.487,0,0,0-.521,3.975,7.547,7.547,0,0,0,3.08,4.882,17.04,17.04,0,0,0,5.346,2.49,14.015,14.015,0,0,0,4.772.814,5.806,5.806,0,0,0,4.288-1.977c1.009-1.269.96-3.2,2.034-4.333a9.5,9.5,0,0,1,1.949-1.477l8.829-5.594a45.508,45.508,0,0,1,4.26-2.469c2.97-1.453,6.237-2.238,9.187-3.731s5.7-3.959,6.286-7.213c1.8-10,8.719-18.43,14.646-26.689-.2-.041-.134-.484-.208-.671a8.525,8.525,0,0,0-4.337-4.37A25.659,25.659,0,0,0,295.1,267.35Z" transform="translate(-181.681 -189.032)" fill="#d9583f"/><path d="M240.58,257.438a5.517,5.517,0,0,0-.614-3.141c-.98-1.627-3.035-2.2-4.882-2.584q-2.681-.549-5.387-.944a12.161,12.161,0,0,0-4.455-.073c-2.034.443-3.69,1.79-5.574,2.628-2.225.993-4.691,1.253-7.067,1.8s-4.809,1.481-6.3,3.409a11.793,11.793,0,0,0-1.92,5.159c-2.819,15.212.216,30.815.793,46.275.224,6.017-.049,12.45-3.487,17.393L211.7,327.1c2.563-.065,5.317-.2,7.323-1.782,1.774-1.391,2.612-3.633,3.373-5.757a17.811,17.811,0,0,0,1.277-5.151c.159-3.633-1.9-7.2-1.221-10.777.5-2.669,2.441-4.825,4.52-6.579s4.39-3.255,6.07-5.4c3-3.8,3.576-8.983,3.2-13.8-.224-2.868-.736-5.737-.488-8.6a10.849,10.849,0,0,1,2.27-6.029C239.608,261.315,240.442,260.128,240.58,257.438Z" transform="translate(-158.375 -179.047)" fill="#3f3d56"/><path d="M239.936,256.073c-.964-1.6-2.966-2.181-4.8-2.563a4.732,4.732,0,0,1,2.376,1.872,5.484,5.484,0,0,1,.614,3.141c-.138,2.685-.972,3.873-2.567,5.773a10.838,10.838,0,0,0-2.27,6.029c-.248,2.868.264,5.737.488,8.6.374,4.821-.2,10.008-3.2,13.8-1.684,2.132-4,3.662-6.07,5.4s-4.024,3.91-4.524,6.579c-.671,3.576,1.391,7.144,1.221,10.777a17.818,17.818,0,0,1-1.282,5.151c-.757,2.124-1.6,4.361-3.373,5.753-2.034,1.583-4.772,1.721-7.323,1.786l-7.091.187c-.159.26-.321.521-.5.769l10.012-.264c2.563-.065,5.317-.2,7.323-1.782,1.774-1.391,2.612-3.633,3.373-5.757a17.812,17.812,0,0,0,1.277-5.151c.159-3.633-1.9-7.2-1.221-10.777.5-2.669,2.441-4.825,4.52-6.579s4.39-3.255,6.07-5.4c3-3.8,3.576-8.983,3.2-13.8-.224-2.868-.736-5.737-.488-8.6a10.849,10.849,0,0,1,2.27-6.029c1.595-1.9,2.441-3.084,2.567-5.773A5.517,5.517,0,0,0,239.936,256.073Z" transform="translate(-158.346 -180.823)" opacity="0.1"/><path d="M450.146,601.773l-18.377,44.814a9.045,9.045,0,0,1-2.559-2.819c1.477-5.586,2.994-11.266,6-16.2.98-1.627,2.1-3.113,3.112-4.7,2.925-4.6,3.527-10.4,6.868-14.7a2.526,2.526,0,0,0,0-2.994c-.386-.5-1-.976-.887-1.595.085-.452.557-.859.374-1.281-.085-.2-.293-.313-.456-.46-.57-.525-.5-1.42-.545-2.189-.126-1.949-1.294-3.662-2.441-5.252a3.258,3.258,0,0,0-.891-.96c-.3-.183-.659-.264-.96-.452-1.066-.667-.989-2.221-1.5-3.373-.667-1.517-2.347-2.291-3.45-3.523-1.4-1.566-1.762-3.751-3.255-5.122l-.126-.317L432.485,572Z" transform="translate(-293.33 -369.736)" opacity="0.1"/></svg>