<svg xmlns="http://www.w3.org/2000/svg" width="412.571" height="250.301" viewBox="0 0 412.571 250.301"><ellipse cx="150.189" cy="13.513" rx="150.189" ry="13.513" transform="translate(112.192 223.275)" fill="#1b788a"/><rect width="163.02" height="110.414" transform="translate(351.99 110.414) rotate(180)" fill="#3f3d56" opacity="0.3"/><rect width="48.27" height="52.606" transform="translate(293.315 10.116)" fill="#f2f2f2"/><rect width="46.536" height="3.179" transform="translate(263.543 13.296) rotate(180)" fill="#f2f2f2"/><rect width="16.475" height="3.179" transform="translate(309.79 73.995) rotate(180)" fill="#f2f2f2"/><rect width="47.114" height="3.179" transform="translate(341.006 79.776) rotate(180)" fill="#f2f2f2"/><rect width="67.058" height="3.179" transform="translate(274.527 24.858) rotate(180)" fill="#f2f2f2"/><rect width="67.058" height="3.179" transform="translate(274.527 33.818) rotate(180)" fill="#f2f2f2"/><rect width="67.058" height="3.179" transform="translate(274.527 42.778) rotate(180)" fill="#f2f2f2"/><rect width="67.058" height="3.179" transform="translate(274.527 51.738) rotate(180)" fill="#f2f2f2"/><rect width="67.058" height="3.179" transform="translate(274.527 60.699) rotate(180)" fill="#f2f2f2"/><rect width="67.058" height="3.179" transform="translate(274.527 69.659) rotate(180)" fill="#f2f2f2"/><rect width="67.058" height="3.179" transform="translate(274.527 78.619) rotate(180)" fill="#f2f2f2"/><path d="M842.273,222.13a8.538,8.538,0,0,1,2.337-1.172,59.6,59.6,0,0,1,16.469-3.585c4.9-.347,10.2.065,14.029,3.143a4.823,4.823,0,0,1,1.423,1.658,6.073,6.073,0,0,1,.18,3.379,3.819,3.819,0,0,1-.328,1.272,2.858,2.858,0,0,1-2.882,1.206c-1.1-.118-2.133-.583-3.219-.8a14.391,14.391,0,0,0-2.033-.207l-6.809-.369c-4.234-.229-8.524-.455-12.677.4a12.627,12.627,0,0,0-3.663,1.262c-.948.533-1.587,1.3-2.468.313C841.086,226.9,840.23,223.726,842.273,222.13Z" transform="translate(-541.709 -181.974)" fill="#2f2e41"/><path d="M868.5,235.031s9.158-4.105,12.632.632-1.895,2.842-1.895,2.842l-6,1.895-6.632-1.263Z" transform="translate(-557.387 -191.864)" fill="#f2f2f2"/><path d="M872.741,225.366s1.263,6,.316,7.579,5.368,3.79,5.368,3.79l6-2.526s-1.579-9.79,0-11.684Z" transform="translate(-561.153 -185.2)" fill="#ffb9b9"/><path d="M872.741,225.366s1.263,6,.316,7.579,5.368,3.79,5.368,3.79l6-2.526s-1.579-9.79,0-11.684Z" transform="translate(-561.153 -185.2)" opacity="0.1"/><path d="M880.238,199.28a9.482,9.482,0,0,1-9.474,9.474,9.243,9.243,0,0,1-1.683-.152,9.473,9.473,0,1,1,11.157-9.322Z" transform="translate(-554.123 -165.114)" fill="#ffb9b9"/><path d="M877.14,257.251H846.927l.685-2.974,2.966-12.923,3.428-2.315,0,0,1.61-1.09.8-.541s.474.217,1.02.512c.159.09.321.182.483.28,0,0,0,0,0,0a5.659,5.659,0,0,1,.746.517c.043.04.081.075.119.113.6.6,2.356,3.792,5.258,2.159a4.431,4.431,0,0,0,.425-.266,21.014,21.014,0,0,0,2.159-1.714c.61-.558,1.006-.988,1.33-1.286a2.1,2.1,0,0,1,.491-.364.935.935,0,0,1,.442-.107c.948,0,2.211,1.893,2.211,1.893l.038.11,0,.009,3.986,11.966Z" transform="translate(-545.305 -194.24)" fill="#f2f2f2"/><path d="M837.967,254.093h9.157a22.3,22.3,0,0,0-.165-3.168c-.28-2.113-.968-4.148-1.4-6.235a26.235,26.235,0,0,1-.552-5.561c0-.257.009-.517.032-.777a3.561,3.561,0,0,1,.5-1.688c.217-.332.515-.616.746-.934a2.133,2.133,0,0,0,.211-.332v0a1.9,1.9,0,0,0,.078-.176,1.424,1.424,0,0,0,.087-.431,2.636,2.636,0,0,0-1.746-2.266,6.527,6.527,0,0,0-4.09-.165,19.464,19.464,0,0,0-3.844,1.572c-.413.2-.824.41-1.22.642a6.053,6.053,0,0,0-1.292.983,8.177,8.177,0,0,0-1.76,3.8,8.026,8.026,0,0,0-.332,3.237c0,.035.012.072.017.107.344,1.8,1.812,3.153,2.6,4.813a10.537,10.537,0,0,1,.486,6.266c-.017.107-.038.214-.058.321h2.552Z" transform="translate(-536.346 -191.082)" fill="#2f2e41"/><path d="M915.553,239.055a71.555,71.555,0,0,0-2.494,11.565H900.006q-.512-1.4-1.02-2.8a20.982,20.982,0,0,1-.7-2.15,10.293,10.293,0,0,1-.292-2.59c0-.208.009-.419.026-.627a.009.009,0,0,0,0-.012,10.339,10.339,0,0,1,.754-3.2,11.92,11.92,0,0,1,.665-1.35c.607-1.1,1.341-2.133,1.994-3.208a14.736,14.736,0,0,0,1.061-2.058.01.01,0,0,1,0-.009,7.39,7.39,0,0,0,.6-2.876c-.02-1.275-2.177-3.5.168-3.284,3.2.289,5.948,2.13,8.454,4.229.668.561,1.321,1.142,1.96,1.714a6.584,6.584,0,0,1,2.33,3.159,3.363,3.363,0,0,1,.084.63,8.648,8.648,0,0,1-.541,2.862Z" transform="translate(-576.657 -187.608)" fill="#2f2e41"/><path d="M875.731,243.693a7.058,7.058,0,0,0-1.482-2.39,5.5,5.5,0,0,0-2.264-1.147,12.379,12.379,0,0,0-3.321-.476c-1.337-.008-2.888.35-3.456,1.561a3.684,3.684,0,0,0,.353,3.06,3,3,0,0,0,.936,1.265,5.2,5.2,0,0,0,2.006.508,9.254,9.254,0,0,1,2.966,1.344l2.343,1.416,4.023,2.432c-.106-.064-.068-2.823-.192-3.275A31.848,31.848,0,0,0,875.731,243.693Z" transform="translate(-556.4 -195.732)" fill="#ffb9b9"/><path d="M875.118,186.506a2.4,2.4,0,0,0-1.043-1.361,5.519,5.519,0,0,0-.22-1.8c-.574-1.7-1.933-1.6-3.215-2.349-.556-.325-.522-.613-.812-1.147a4.257,4.257,0,0,0-1.641-1.674,5.9,5.9,0,0,0-2.665-1.13c-2.045-.139-3.614,1.784-5.568,2.4-.862.272-1.788.283-2.654.541a2.441,2.441,0,0,0-1.86,1.766c-.06.413.046.836-.015,1.249-.12.82-.84,1.4-1.322,2.07a5.1,5.1,0,0,0-.092,5.224,7.338,7.338,0,0,0,.614.962,5.911,5.911,0,0,0,.649,2.2,10.947,10.947,0,0,0,3.85,3.845,9.089,9.089,0,0,1-.227-1.64,1.131,1.131,0,0,1,.07-.543c.171-.357.621-.451.965-.647a2.439,2.439,0,0,0,1.011-2.118c.021-.818-.153-1.638-.067-2.452a1.341,1.341,0,0,1,.459-.986,1.585,1.585,0,0,1,.865-.206,9.762,9.762,0,0,0,4.269-.776,6.333,6.333,0,0,1,1.329-.672,2.825,2.825,0,0,1,2.841,1.419c.63.938.944,2.054,1.526,3.023a3.07,3.07,0,0,0,2.71,1.718.45.45,0,0,0,.336-.149.5.5,0,0,0,.062-.286l.063-4.3A6.493,6.493,0,0,0,875.118,186.506Z" transform="translate(-549.242 -157.277)" fill="#2f2e41"/><path d="M832.987,259.655q.308,2.536.373,5.09h-7.949v-6.68c.04-.162.084-.321.136-.48a17.169,17.169,0,0,1,2.445-4.148c.043-.066.09-.133.133-.2a10.85,10.85,0,0,0,.989-1.783c.13-.306.338-1.789.558-1.916.942-.546,1.708,1.789,1.838,2.309.462,1.853.864,3.723,1.168,5.61Q832.855,258.555,832.987,259.655Z" transform="translate(-532.096 -201.734)" fill="#2f2e41"/><path d="M911.489,261.915H893.241c-.156-.367-.309-.734-.471-1.1a32.108,32.108,0,0,0-4.376-7.177,1.9,1.9,0,0,1-.541-1.072.908.908,0,0,1,.119-.483,3.153,3.153,0,0,1,1.607-1.067,5.537,5.537,0,0,0,1.671-1.052,3.583,3.583,0,0,0,.965-1.425,3.134,3.134,0,0,0,.121-.491l.254.332c.205.272.413.541.624.809,2.023,2.6,4.246,5.159,7.041,6.7a11.856,11.856,0,0,0,2.3.98.6.6,0,0,0,.486,0,.588.588,0,0,0,.211-.387c.249-1.041.335-2.113.517-3.168a18.04,18.04,0,0,1,1.9-5.486c.517-.963,2.2-4.48,3.266-2.263q.459.958.925,1.922c.193.408.39.812.587,1.22a7.585,7.585,0,0,1,.951,4.249Q911.448,257.44,911.489,261.915Z" transform="translate(-570.43 -198.904)" fill="#2f2e41"/><path d="M843.181,277.51h1.581l-.9-2.974-1.292-4.286a13.97,13.97,0,0,1-.124,2.171,14.45,14.45,0,0,1-1.26,4.289c-.124.263-.257.529-.364.8Z" transform="translate(-541.559 -214.499)" opacity="0.1"/><path d="M928.032,265.38a3.088,3.088,0,0,0,.151,1.876,18.9,18.9,0,0,1,.689,5.485.2.2,0,0,1-.234.239,2.518,2.518,0,0,1-2.058-.488Z" transform="translate(-594.206 -211.51)" opacity="0.1"/><rect width="163.02" height="110.414" transform="translate(0 1.136)" fill="#3f3d56" opacity="0.3"/><rect width="48.27" height="52.606" transform="translate(10.406 11.253)" fill="#f2f2f2"/><rect width="46.536" height="3.179" transform="translate(88.447 11.253)" fill="#f2f2f2"/><rect width="16.475" height="3.179" transform="translate(10.984 71.952)" fill="#f2f2f2"/><rect width="47.114" height="3.179" transform="translate(10.984 77.733)" fill="#f2f2f2"/><rect width="67.058" height="3.179" transform="translate(77.463 22.815)" fill="#f2f2f2"/><rect width="67.058" height="3.179" transform="translate(77.463 31.775)" fill="#f2f2f2"/><rect width="67.058" height="3.179" transform="translate(77.463 40.735)" fill="#f2f2f2"/><rect width="67.058" height="3.179" transform="translate(77.463 49.695)" fill="#f2f2f2"/><rect width="67.058" height="3.179" transform="translate(77.463 58.656)" fill="#f2f2f2"/><rect width="67.058" height="3.179" transform="translate(77.463 67.616)" fill="#f2f2f2"/><rect width="67.058" height="3.179" transform="translate(77.463 76.576)" fill="#f2f2f2"/><path d="M196.62,262.959h-6.275q-.724-1.947-1.286-3.943a7.876,7.876,0,0,0-2.046-4.171,7.736,7.736,0,0,1-.882-1.2,5.62,5.62,0,0,1-.555-3.408,8.855,8.855,0,0,1,.162-.965c.275-1.234.734-2.419,1.119-3.622a1.374,1.374,0,0,1,1.121-.928,2.225,2.225,0,0,1,1.226.142,1.525,1.525,0,0,1,.246.127,3.793,3.793,0,0,1,1.327,2.029q1.964,5.272,3.925,10.544.382,1.023.763,2.052c.376,1.006.749,2.012,1.067,3.038C196.563,262.759,196.591,262.858,196.62,262.959Z" transform="translate(-139.257 -198.811)" fill="#d0cde1"/><path d="M128.548,170.824a4.8,4.8,0,0,0-3.293,3.375c-.148.749-.057,1.527-.182,2.28-.289,1.747-1.66,3.081-2.925,4.32s-2.57,2.679-2.663,4.447c-.1,1.936,1.3,3.75,1.06,5.673-.282,2.235-2.642,3.682-3.226,5.858a5.636,5.636,0,0,0,.873,4.3,12.306,12.306,0,0,0,6.779,4.993,28.243,28.243,0,0,0,8.492,1.107c3.489.037,7.278-.263,9.9-2.566A7.931,7.931,0,0,0,146,199.446c.249-2.668-.864-5.424-.1-7.991.483-1.615,1.7-3.091,1.515-4.767-.177-1.639-1.608-2.8-2.591-4.125a16.769,16.769,0,0,1-2.019-4.136L140.94,173.5a5.717,5.717,0,0,0-1.587-2.622c-1.53-1.19-3.991-.956-5.78-.711A27.039,27.039,0,0,0,128.548,170.824Z" transform="translate(-97.308 -152.937)" fill="#2f2e41"/><path d="M149.665,212.5s.183,5.479-.365,6.027,2.192,4.2,2.192,4.2l4.931-.183,2.557-2.009-2.192-2.922s-.913-4.748-.183-5.844S149.665,212.5,149.665,212.5Z" transform="translate(-116.981 -178.384)" fill="#a0616a"/><path d="M149.665,212.5s.183,5.479-.365,6.027,2.192,4.2,2.192,4.2l4.931-.183,2.557-2.009-2.192-2.922s-.913-4.748-.183-5.844S149.665,212.5,149.665,212.5Z" transform="translate(-116.981 -178.384)" opacity="0.1"/><circle cx="6.575" cy="6.575" r="6.575" transform="translate(29.122 23.069)" fill="#a0616a"/><path d="M132.369,250.954h5.33c.2-.361.387-.737.6-1.078v0a2.951,2.951,0,0,1,.971-1.017,3.829,3.829,0,0,0,.72-.431,1.856,1.856,0,0,0,.439-.821,12.72,12.72,0,0,0,.6-3.544c.009-.4,0-.815.023-1.22a5.125,5.125,0,0,1,.121-.939,7.4,7.4,0,0,1,.789-1.786q1.084-1.973,2.174-3.945a2.757,2.757,0,0,0,.147-1.156,2.85,2.85,0,0,0-.468-1.483c-.1-.182-.211-.364-.327-.54a12,12,0,0,0-1.549-1.977,12.534,12.534,0,0,0-4.411-2.986,2.56,2.56,0,0,1-.593-.289,2.459,2.459,0,0,1-.543-.65c-.578-.87-1.283-1.85-2.327-1.795a1.431,1.431,0,0,0-1.1-.075,1.52,1.52,0,0,0-.162.052,10.272,10.272,0,0,0-1.159.6,5.381,5.381,0,0,1-3.122.567,1.057,1.057,0,0,1-.364-.093,1.863,1.863,0,0,1-.335-.272,1.927,1.927,0,0,0-1.916-.306,1.74,1.74,0,0,0-.763.538c-.191.24-.324.529-.535.754a2.969,2.969,0,0,1-2.246.6,20.753,20.753,0,0,0-4.934.454A9.379,9.379,0,0,0,113.547,230l0,0c-.156.133-.3.269-.445.413a3.3,3.3,0,0,0-.769,1.1c-.22.567-.191,1.205-.39,1.781-.22.645-.708,1.171-.9,1.818a7.31,7.31,0,0,1-.379,1.48l.032.026c1.052.925,1.951,2.139,3.006,3.055a6.068,6.068,0,0,1,1.526,1.705,2.814,2.814,0,0,1,.188.462,7.111,7.111,0,0,1,.156,1.682c.133,2.7,1.6,5.154,3.237,7.3.032.043.064.087.1.127Z" transform="translate(-93.302 -186.807)" fill="#d0cde1"/><path d="M107.734,257.759q-.373,2.588-.752,5.174a22.543,22.543,0,0,1-.514,2.74c-.15.558-.344,1.1-.48,1.662H98.461a7.213,7.213,0,0,1,.072-.934,15.435,15.435,0,0,1,.939-3.24q1.314-3.547,2.624-7.1c.373-1.009.694-2.064,1.1-3.064.072-.185.15-.37.234-.549.436-.96,1.648-.567,2.544-.422a2.415,2.415,0,0,1,.711.2,1.835,1.835,0,0,1,.668.63c.85,1.257.665,2.919.445,4.422Z" transform="translate(-85.816 -203.188)" fill="#d0cde1"/><path d="M172.828,289.2c.012.04.136.471.341,1.078h-6.275c3.11-.535,5.934-1.081,5.934-1.081Z" transform="translate(-127.827 -226.132)" fill="#2f2e41"/><ellipse cx="7.123" cy="3.835" rx="7.123" ry="3.835" transform="translate(29.122 21.973)" fill="#2f2e41"/><rect width="163.02" height="110.414" transform="translate(104.433 41.784)" fill="#1b788a"/><ellipse cx="19.077" cy="2.023" rx="19.077" ry="2.023" transform="translate(224.675 140.636)" opacity="0.1"/><rect width="48.27" height="52.606" transform="translate(114.839 51.9)" fill="#f2f2f2"/><path d="M395.976,295.77a.708.708,0,0,0,.831-.343c.668-1.052-.562-2.408-.3-3.625.213-.975,1.321-1.554,1.548-2.526.22-.945-.458-2.009,0-2.864a1.9,1.9,0,0,1,2.007-.728c.751.117,1.463.447,2.222.494a10.9,10.9,0,0,0,2.962-.6,2.649,2.649,0,0,1,2.775.695c.746,1.064-.011,2.547.249,3.82.206,1.011,1.053,1.849,1.071,2.881.006.367-.958.071-.907.435s-.4.043-.04,0a.722.722,0,0,0,.548-.652c.043-.3.612-.4.605-.709-.015-.716,1.28-.233,1.493-.917a6.936,6.936,0,0,0-.283-4.838,9.693,9.693,0,0,1-.826-1.968c-.19-.95.109-1.969-.2-2.886a3.515,3.515,0,0,0-3.121-1.992c-1.3-.128-2.619.1-3.911-.088a17.034,17.034,0,0,0-3.444-.6,5.723,5.723,0,0,0-3.59,2,30.165,30.165,0,0,1-2.9,3.046,5.684,5.684,0,0,0-.929.8,3.12,3.12,0,0,0-.462,2.53c.156.871.5,1.7.64,2.576.135.821.093,1.659.151,2.489a4.375,4.375,0,0,0,.73,2.35,2.217,2.217,0,0,0,1.726.9c.234.005.431-.2.667-.15C395.586,295.37,395.714,295.65,395.976,295.77Z" transform="translate(-265.593 -219.717)" fill="#2f2e41"/><path d="M375.913,383.522c.211-2.893.37-5.055.37-5.055l1.364-3.6,4.379,8.651Z" transform="translate(-256.145 -278.727)" fill="#575a89"/><path d="M375.913,383.522c.211-2.893.37-5.055.37-5.055l1.364-3.6,4.379,8.651Z" transform="translate(-256.145 -278.727)" opacity="0.1"/><path d="M402.2,319.574s4.083,10.394,1.732,12.373,13.116-3.341,13.116-3.341l-.371-1.361s-5.073-1.98-2.6-7.671S402.2,319.574,402.2,319.574Z" transform="translate(-272.281 -243.227)" fill="#a0616a"/><path d="M402.2,319.574s4.083,10.394,1.732,12.373,13.116-3.341,13.116-3.341l-.371-1.361s-5.073-1.98-2.6-7.671S402.2,319.574,402.2,319.574Z" transform="translate(-272.281 -243.227)" opacity="0.1"/><circle cx="8.661" cy="8.661" r="8.661" transform="translate(127.069 63.232)" fill="#a0616a"/><path d="M413.485,348.645l-.1,1.89c-.124,2.448-.347,7.035-.569,12.328H379.245a16.645,16.645,0,0,1-2.136-3.824,4.126,4.126,0,0,1-.251-1.231c-.185-3.281,2.755-7.859,4.83-8.3,2.35-.5,6.8-5.2,6.8-5.2a1.06,1.06,0,0,0,.567.856v0a2.3,2.3,0,0,0,1.165.254c1.451,0,7.833-2.945,9.882-3.908.4-.188.636-.3.636-.3a48.026,48.026,0,0,0,7.3,2.477,7.765,7.765,0,0,1,5.443,4.948Z" transform="translate(-256.721 -258.068)" fill="#575a89"/><path d="M392.13,293.527a.709.709,0,0,0,.831-.343c.668-1.052-.562-2.408-.3-3.625.213-.975,1.321-1.554,1.548-2.526.22-.945-.458-2.009,0-2.864a1.9,1.9,0,0,1,2.007-.728c.751.117,1.463.447,2.222.494a10.9,10.9,0,0,0,2.962-.6,2.649,2.649,0,0,1,2.775.695c.746,1.064-.011,2.547.249,3.82.206,1.011,2.558,1.721,2.771,1.037a6.936,6.936,0,0,0-.284-4.838,9.69,9.69,0,0,1-.826-1.968c-.19-.95.109-1.969-.2-2.886a3.515,3.515,0,0,0-3.121-1.992c-1.3-.128-2.619.1-3.911-.088a17.038,17.038,0,0,0-3.444-.6,5.723,5.723,0,0,0-3.59,2,30.156,30.156,0,0,1-2.9,3.046,5.677,5.677,0,0,0-.929.8,3.12,3.12,0,0,0-.462,2.53c.156.871.5,1.7.64,2.576.135.821.093,1.659.151,2.489a4.375,4.375,0,0,0,.73,2.35,2.217,2.217,0,0,0,1.726.9c.234.005.431-.2.667-.15C391.74,293.127,391.868,293.407,392.13,293.527Z" transform="translate(-263.233 -218.34)" fill="#2f2e41"/><path d="M465.11,374.67h-9.8c-.746-5.469-1.361-11.186-1.361-11.186l1.98-.867,4.023-2.165s.295.7.769,1.89C461.734,364.889,463.57,369.681,465.11,374.67Z" transform="translate(-304.054 -269.875)" opacity="0.1"/><path d="M462.335,372.505H451.276c-1.639-5.983-3.255-12.487-3.255-12.487l4.208-3.093,4.948,1.361S460.074,365.181,462.335,372.505Z" transform="translate(-300.414 -267.71)" fill="#575a89"/><rect width="46.536" height="3.179" transform="translate(192.88 51.9)" fill="#d9583f"/><rect width="16.475" height="3.179" transform="translate(115.417 112.599)" fill="#d9583f"/><rect width="47.114" height="3.179" transform="translate(115.417 118.38)" fill="#d9583f"/><rect width="67.058" height="3.179" transform="translate(181.897 63.462)" fill="#f2f2f2"/><rect width="67.058" height="3.179" transform="translate(181.897 72.422)" fill="#f2f2f2"/><rect width="67.058" height="3.179" transform="translate(181.897 81.382)" fill="#f2f2f2"/><rect width="67.058" height="3.179" transform="translate(181.897 90.343)" fill="#f2f2f2"/><rect width="67.058" height="3.179" transform="translate(181.897 99.303)" fill="#f2f2f2"/><rect width="67.058" height="3.179" transform="translate(181.897 108.263)" fill="#f2f2f2"/><rect width="67.058" height="3.179" transform="translate(181.897 117.224)" fill="#f2f2f2"/><path d="M695.2,429.168,676.873,447.5l-7.7-7.7a2.634,2.634,0,0,0-3.725,0l-.277-.414c-1.029,1.029-.752,3.11.277,4.139l10,10a2.01,2.01,0,0,0,2.841,0l20.645-20.624c1.029-1.028,1.4-2.913.374-3.942h0A3.116,3.116,0,0,0,695.2,429.168Z" transform="translate(-433.324 -311.515)" fill="#57b894"/><path d="M695.2,429.168,676.873,447.5l-7.7-7.7a2.634,2.634,0,0,0-3.725,0l-.277-.414c-1.029,1.029-.752,3.11.277,4.139l10,10a2.01,2.01,0,0,0,2.841,0l20.645-20.624c1.029-1.028,1.4-2.913.374-3.942h0A3.116,3.116,0,0,0,695.2,429.168Z" transform="translate(-433.324 -311.515)" opacity="0.1"/><path d="M695.446,427.25l-18.331,18.331-7.7-7.7a2.634,2.634,0,0,0-3.725,0h0a2.634,2.634,0,0,0,0,3.725l10,10a2.01,2.01,0,0,0,2.841,0l20.645-20.624a2.633,2.633,0,0,0,0-3.725h0a2.633,2.633,0,0,0-3.724,0Z" transform="translate(-433.566 -310.41)" fill="#57b894"/><path d="M890.175,663.459c0,20.669-28.81,14.276-64.085,14.276s-63.657,6.393-63.657-14.276,28.806-25.164,64.081-25.164S890.175,642.79,890.175,663.459Z" transform="translate(-493.434 -440.445)" opacity="0.1"/><path d="M890.175,653.459c0,20.669-28.81,14.276-64.085,14.276s-63.657,6.393-63.657-14.276,28.806-25.164,64.081-25.164S890.175,632.79,890.175,653.459Z" transform="translate(-493.434 -434.306)" fill="#1b788a"/><path d="M755.042,525.762l-1.305,1.516s-15.873,1.49-15.229,4.067,19.111-3.436,19.111-3.436Z" transform="translate(-478.734 -371.36)" fill="#ffc1c7"/><path d="M814.233,522.425s-16.963,6.012-26.2,3.436l4.295,8.589s21.9-.644,25.767-4.509S814.233,522.425,814.233,522.425Z" transform="translate(-509.152 -369.312)" fill="#d9583f"/><path d="M814.233,522.425s-16.963,6.012-26.2,3.436l4.295,8.589s21.9-.644,25.767-4.509S814.233,522.425,814.233,522.425Z" transform="translate(-509.152 -369.312)" opacity="0.1"/><circle cx="11.381" cy="11.381" r="11.381" transform="translate(282.213 84.293)" fill="#ffc1c7"/><path d="M823.306,393.056a8.878,8.878,0,0,0,1.475,2.044,18.614,18.614,0,0,0,5.486,4.105,186.943,186.943,0,0,1-19.546,2.906c.693-2.44-.219-5.049-1.445-7.27s-2.788-4.29-3.555-6.707l7.692.207c1.4.038,2.8.079,4.191.011,1.043-.051,2.78-.676,3.754-.446C823.416,388.393,822.407,391.231,823.306,393.056Z" transform="translate(-520.008 -286.698)" fill="#ffc1c7"/><path d="M785.7,534.544l6.442,7.73s10.736,25.123-12.669,27.7-40.8-1.933-40.8-1.933-9.448-4.509-9.663-1.074a55.372,55.372,0,0,1-6.227,22.546l-4.509,10.307a6.657,6.657,0,0,0-1.718,5.583c.644,3.221-14.387,4.295-14.172,0,0,0,2.147-3.65,2.147-5.8s3.436-7.3,3.436-7.3l6.227-30.921s-.429-15.89,14.172-12.884,35.43-.644,35.43-.644l4.724-16.534Z" transform="translate(-456.568 -374.774)" fill="#2f2e41"/><path d="M785.7,534.544l6.442,7.73s10.736,25.123-12.669,27.7-40.8-1.933-40.8-1.933-9.448-4.509-9.663-1.074a55.372,55.372,0,0,1-6.227,22.546l-4.509,10.307a6.657,6.657,0,0,0-1.718,5.583c.644,3.221-14.387,4.295-14.172,0,0,0,2.147-3.65,2.147-5.8s3.436-7.3,3.436-7.3l6.227-30.921s-.429-15.89,14.172-12.884,35.43-.644,35.43-.644l4.724-16.534Z" transform="translate(-456.568 -374.774)" opacity="0.1"/><path d="M730.012,535.441s19.648-7.379,30.6,8.3c0,0,2.791,24.264-8.375,25.338s-25.767.859-29.2-2.791-25.123-13.957-25.123-13.957-10.8-5.507-12.913,1.649a77.065,77.065,0,0,0-2.332,8.873s-11.166,8.16-15.675,9.663c0,0-3.006,4.294-4.724,4.294s-12.24,2.362-11.166-5.583l17.393-15.89,17.393-16.964s4.939-7.3,17.608-3.436a261.943,261.943,0,0,0,25.553,6.227Z" transform="translate(-425.038 -376.237)" fill="#2f2e41"/><path d="M688.739,721.08s4.08,10.307.644,11.6-10.736.43-10.736.43-8.589-1.074-10.736-.859-10.951-1.5-9.663-4.939,7.945-2.577,7.945-2.577l6.012-2.792s.644-2.147,2.147-1.288S680.15,724.731,688.739,721.08Z" transform="translate(-429.395 -490.88)" fill="#cbceda"/><path d="M639.953,635.6s4.509,10.092-2.791,9.233-12.884-2.362-15.031-2.577c-2.065-.207-7.906-2.2-7.01-6.175a3.541,3.541,0,0,0,.058-.78c0-.533.725-1.58,6.522-1.419,0,0,4.295,0,6.012-3.006C627.714,630.876,634.156,639.035,639.953,635.6Z" transform="translate(-402.941 -435.891)" fill="#cbceda"/><path d="M805.834,413.819s15.461-9.663,28.344,0S855.65,467.5,855.65,467.5L825.8,460.845s-1.288-5.154-3.006-6.012-1.933-4.509-1.933-4.509a12.927,12.927,0,0,1-8.589-13.528C812.92,426.059,805.834,413.819,805.834,413.819Z" transform="translate(-520.078 -300.001)" fill="#d9583f"/><path d="M796.095,421.76H788.15s-4.724,5.368-5.368,18.9L780.2,451.393s-5.368,12.884-2.147,15.031,9.448,1.933,10.736-2.362,10.092-29.2,10.092-29.2Z" transform="translate(-502.394 -307.513)" fill="#d9583f"/><path d="M787,333.923a11.5,11.5,0,0,1,11.9,1.951c4.124,3.68,4.956,9.684,6,15.112s3.14,11.473,8.255,13.565a21.509,21.509,0,0,1-6.931-.2l7.731,6.928-13.023-4.245c-4.087-1.332-8.38-2.681-12.612-1.929-7.012,1.246-11.893,7.838-18.628,10.154l.748-3.652-4.518-.035a8.847,8.847,0,0,0,2.589-3.033,2.505,2.505,0,0,0-1.728-.9c-1.883-11.748,5.093-23.361,14.184-31.037a13.119,13.119,0,0,1,6.077-3.337c2.31-.378,5.006.655,5.809,2.853" transform="translate(-495.573 -253.061)" fill="#2f2e41"/><path d="M310.2,614.159c0,24.716,15.506,44.716,34.667,44.716" transform="translate(-215.801 -425.628)" fill="#1b788a"/><path d="M399.987,658.077c0-24.994,17.3-45.218,38.687-45.218" transform="translate(-270.925 -424.829)" fill="#d9583f"/><path d="M342.729,619.963c0,23.478,9.888,42.475,22.107,42.475" transform="translate(-235.774 -429.191)" fill="#d9583f"/><path d="M399.987,638.1c0-31.937,20-57.779,44.716-57.779" transform="translate(-270.925 -404.857)" fill="#1b788a"/><path d="M381.1,726.569s4.916-.151,6.4-1.206,7.563-2.315,7.93-.623,7.388,8.416,1.838,8.461-12.9-.865-14.376-1.765S381.1,726.569,381.1,726.569Z" transform="translate(-259.328 -493.007)" fill="#a8a8a8"/><path d="M397.362,736.825c-5.551.045-12.9-.865-14.376-1.766-1.126-.686-1.575-3.148-1.725-4.283l-.164.006s.311,3.965,1.79,4.866,8.825,1.81,14.376,1.766c1.6-.013,2.156-.583,2.125-1.427C399.166,736.5,398.555,736.816,397.362,736.825Z" transform="translate(-259.328 -497.221)" opacity="0.2"/></svg>