<svg xmlns="http://www.w3.org/2000/svg" width="409.583" height="359.165" viewBox="0 0 409.583 359.165"><ellipse cx="148.619" cy="26.255" rx="148.619" ry="26.255" transform="translate(79.778 306.654)" fill="#1b788a"/><path d="M304.389,297.026a70.769,70.769,0,1,0-32.835,26.364,22.892,22.892,0,1,0,32.835-26.364Z" transform="translate(-174.898 -134.112)" fill="#d9583f"/><rect width="84.183" height="6.646" transform="translate(28.608 109.258)" fill="#fff"/><rect width="84.183" height="6.646" transform="translate(28.608 120.335)" fill="#fff"/><rect width="84.183" height="6.646" transform="translate(28.608 131.412)" fill="#fff"/><path d="M743.288,187.752a70.769,70.769,0,1,1,32.835,26.364,22.892,22.892,0,1,1-32.835-26.364Z" transform="translate(-463.196 -77.481)" fill="#d9583f"/><rect width="84.183" height="6.646" transform="translate(380.976 63.262) rotate(180)" fill="#fff"/><rect width="84.183" height="6.646" transform="translate(380.976 74.339) rotate(180)" fill="#fff"/><rect width="84.183" height="6.646" transform="translate(380.976 85.416) rotate(180)" fill="#fff"/><path d="M493.945,642.236a39.509,39.509,0,1,1,18.332,14.719,12.78,12.78,0,1,1-18.332-14.719Z" transform="translate(-336.744 -338.262)" fill="#d9583f"/><circle cx="4.572" cy="4.572" r="4.572" transform="translate(169.894 276.447)" fill="#fff"/><circle cx="4.572" cy="4.572" r="4.572" transform="translate(185.493 276.447)" fill="#fff"/><circle cx="4.572" cy="4.572" r="4.572" transform="translate(201.093 276.447)" fill="#fff"/><path d="M570.376,366.381s20.4.555,23.77,1.78,4.876,9.991,4.876,9.991l-15.839,4.979-11.847-.671-8.916.63,4.979-13.039Z" transform="translate(-375.731 -227.204)" fill="#2f2e41"/><path d="M578.6,352.486s1.342,5.184-1.637,8.855,12.806,16.75,12.806,16.75l8.327-1.431s-1.835-15.928.63-19.962S578.6,352.486,578.6,352.486Z" transform="translate(-383.075 -220.003)" fill="#9f616a"/><path d="M578.6,352.486s1.342,5.184-1.637,8.855,12.806,16.75,12.806,16.75l8.327-1.431s-1.835-15.928.63-19.962S578.6,352.486,578.6,352.486Z" transform="translate(-383.075 -220.003)" opacity="0.1"/><path d="M501.454,590.132,483.081,614.5l12.539,7.321,17.257-28.235Z" transform="translate(-250.55 -306.082)" fill="#9f616a"/><path d="M659.763,711.689s-6.766-7.862-6.465-6.109-4.814,16.62-.055,18.058,45.574,5.252,46.135.643-12.176-7.834-12.176-7.834-7.567-7.272-9.245-6.533S659.763,711.689,659.763,711.689Z" transform="translate(-421.747 -402.863)" fill="#2f2e41"/><path d="M512.663,636.409l14.675,25,11.08-6.416-14.8-20.469Z" transform="translate(-265.881 -329.089)" fill="#9f616a"/><path d="M710.425,590.072l-4.355,6.163s-20.763,28.837-18.558,31.165,11.388,11.128,16.059,9.423,21.263-31.179,21.263-31.179l-4.328-17.3Z" transform="translate(-440.477 -342.235)" fill="#2f2e41"/><path d="M548.676,543.675s4.65,8.676,16.435,11.614,24.1,8.944,24.537,8.868,1.678-.74,1.979,1.014,3.534,4.807,3.534,4.807,13.018,44.238,17.99,44.286,15.189-3.513,15.4-4.9-15.223-46.566-15.374-47.443L611.37,551.4s20.414,3.26,22.318,3.835,18.839,9.848,18.839,9.848,17.264-12.443,1.116-25.009-43.9-21.783-43.9-21.783l-9.957-2.8-8.678-.518-1.278-4.9-20.552,1.186-21.448,9.1Z" transform="translate(-368.17 -301.672)" fill="#2f2e41"/><circle cx="16.009" cy="16.009" r="16.009" transform="translate(191.622 110.783)" fill="#9f616a"/><path d="M565.209,367.027l1.925-.331s3.478,13.39,14.236,15.6c0,0,5.309-6.359,5.082-7.432s4.2-6.8,6.56-3.593-.575,59.66,1.4,60.673,6.225,2.089,2.808,5.834-16.99,8.786-20,7.047-9.149-16.476-11.806-21.434-6.91-21.825-6.91-21.825-5.431-18.469-2.089-22.653S565.209,367.027,565.209,367.027Z" transform="translate(-372.061 -227.367)" fill="#d0cde1"/><path d="M565.889,434.432a91.318,91.318,0,0,1-1.834,11.691c-.785,3.135-1.7,5.028-2.743,4.947-2.662-.2-3.872,3.705-4.5,8.206-.667,4.775-.667,10.223-1.032,12.148-.484,2.544-3.582,4.485-9.771,3.915a43.676,43.676,0,0,1-10.766-2.64c-8.357-3.038-8.11-27.679-6.711-45.963.855-11.207,2.14-20.032,2.14-20.032a99.5,99.5,0,0,1-3.35-12.761,16.971,16.971,0,0,1-.242-2.866c.124-4.533,8.4-16.784,13.4-24.415s11.836-2.033,11.836-2.033l-2.377,7.174s3.684,5.684,3.711,11.094,8.819,9.314,11.976,11.933C567.615,396.476,567.566,418.444,565.889,434.432Z" transform="translate(-357.419 -225.27)" fill="#2f2e41"/><path d="M620.987,372.081s.577.682,3.219.349c3.168-.4,7.524.7,8.536,3.722,1.856,5.547,7.088,28.111,7.088,28.111s2.178,25.8,3.157,31.494.493,10.745,1.459,13.737-9.532-5.581-13.4-4.465-6.355-13.347-5.869-18.394.9-10.532-.445-15.716,1.037-18.9.948-22.047S617.147,377.807,620.987,372.081Z" transform="translate(-405.566 -230.158)" fill="#2f2e41"/><path d="M641.168,538.507s16.951,9.247,18.573,22.41-22.672-12.744-22.672-12.744Z" transform="translate(-414.419 -316.409)" fill="#9f616a"/><path d="M665.663,517.511s5.194,26.181,13.285,24.79-4.52-26.3-4.52-26.3Z" transform="translate(-429.239 -304.747)" fill="#9f616a"/><path d="M715.339,751.989s-4.143,4.773-5.17,4.047-3.39,9.156-1.26,11.046,10.334,4.992,10.423,8.135,22.092,2.52,22.879-.774-2.76-10.806-5.252-12.183-11.709-14.045-11.709-14.045S718.03,749.27,715.339,751.989Z" transform="translate(-451.204 -425.091)" fill="#2f2e41"/><path d="M581.728,494.611c-3.931-2.775-14.907-3.463-24.651-4.1-4.275-.274-8.314-.543-11.417-.979-2.99-.414-5.679-3.146-8.067-7.217-3.619-6.168-6.545-15.418-8.8-24.345.855-11.207,2.14-20.032,2.14-20.032a99.5,99.5,0,0,1-3.35-12.761,6.829,6.829,0,0,1,2.162-1.947c10.336-4.437,20.2,39.225,21.457,46.076.022.113.038.22.054.312.608,3.528,7.174,6.545,13.057,7.739,3.625.737,7,.785,8.551-.172,4.082-2.506,16.633,7.523,17.585,7.808S587.375,498.606,581.728,494.611Z" transform="translate(-357.679 -256.501)" opacity="0.1"/><path d="M526.644,417.648s-7.512,3.547-4.212,20.126,9.95,44.766,20.12,46.176,30.419,1.089,36.069,5.081,9.676-9.334,8.724-9.621-13.5-10.313-17.586-7.807-20.626-1.869-21.606-7.567S537.149,413.135,526.644,417.648Z" transform="translate(-354.574 -253.61)" fill="#2f2e41"/><path d="M644.446,401.484l8.256,19.158s.831-.415,1.8,2.578,1.418,5.622,3.109,7.588,9.217,30,9.443,31.316-10.395,5.848-12.768,2.195S644.446,401.484,644.446,401.484Z" transform="translate(-418.242 -245.397)" fill="#2f2e41"/><path d="M576.042,317.318c.614-.164.7-.978.724-1.613.11-3.4,2.157-6.887,5.41-7.876a9.1,9.1,0,0,1,3.834-.211,14.522,14.522,0,0,1,5.193,1.732,8.1,8.1,0,0,0,2.64,1.2c.635.1,3.383.9,4.016,1.008,1.39.247,2.681,1.491,4.015,1.028,1.276-.443,1.558-2.095,1.589-3.445.07-3.076-2.265-7.333-4.321-9.621a10.729,10.729,0,0,0-6.208-2.955,41.329,41.329,0,0,0-8.119-.494c-3.676.066-7.454.349-10.769,1.94s-6.1,4.757-6.258,8.43c-.033.765.046,1.534-.019,2.3-.157,1.862-1.146,3.544-1.609,5.354a9.8,9.8,0,0,0,1.368,7.829c1.23,1.811,3.164,3.448,3.093,5.636l2.668-2.764a2.191,2.191,0,0,0,.651-2.676l-.944-3.683a3.324,3.324,0,0,1-.082-2.05C573.925,313.878,575.019,317.591,576.042,317.318Z" transform="translate(-377.519 -190.748)" fill="#2f2e41"/><path d="M834.436,590.382c-.111-.181-2.717-4.533-3.621-13.572-.829-8.292-.3-22.269,6.953-41.767,13.733-36.936-3.165-66.738-3.337-67.035l.834-.484a73.983,73.983,0,0,1,6.98,19.773,86.262,86.262,0,0,1-3.573,48.082c-13.709,36.873-3.517,54.328-3.413,54.5Z" transform="translate(-514.677 -279.622)" fill="#3f3d56"/><circle cx="6.263" cy="6.263" r="6.263" transform="translate(308.126 173.692)" fill="#d9583f"/><circle cx="6.263" cy="6.263" r="6.263" transform="translate(327.878 196.816)" fill="#1b788a"/><circle cx="6.263" cy="6.263" r="6.263" transform="translate(314.389 212.232)" fill="#d9583f"/><circle cx="6.263" cy="6.263" r="6.263" transform="translate(330.769 225.239)" fill="#d9583f"/><circle cx="6.263" cy="6.263" r="6.263" transform="translate(309.572 245.472)" fill="#1b788a"/><path d="M845.422,694s-6.263-15.416,12.526-26.978Z" transform="translate(-521.879 -383.015)" fill="#1b788a"/><path d="M803.714,704.961s-2.85-16.394-24.91-16.253Z" transform="translate(-487.874 -394.25)" fill="#1b788a"/></svg>